<svg id="Group_190" data-name="Group 190" xmlns="http://www.w3.org/2000/svg" xmlns:xlink="http://www.w3.org/1999/xlink" width="55.1" height="72.396" viewBox="0 0 55.1 72.396">
  <defs>
    <clipPath id="clip-path">
      <rect id="Rectangle_163" data-name="Rectangle 163" width="55.1" height="72.396" fill="#fff"/>
    </clipPath>
  </defs>
  <g id="Group_186" data-name="Group 186" transform="translate(0 0)" clip-path="url(#clip-path)">
    <path id="Path_82" data-name="Path 82" d="M49.082,0H6.018A6.025,6.025,0,0,0,0,6.018v60.36A6.025,6.025,0,0,0,6.018,72.4H49.082A6.025,6.025,0,0,0,55.1,66.378V6.018A6.025,6.025,0,0,0,49.082,0m3.159,66.378a3.163,3.163,0,0,1-3.159,3.159H6.018a3.162,3.162,0,0,1-3.159-3.159V6.018A3.162,3.162,0,0,1,6.018,2.859H49.082a3.163,3.163,0,0,1,3.159,3.159Z" transform="translate(0 0)" fill="#fff"/>
    <path id="Path_83" data-name="Path 83" d="M22.626,13.019a1.429,1.429,0,0,0-1.43-1.43H13.02a1.429,1.429,0,0,0-1.43,1.43V21.2a1.43,1.43,0,0,0,2.859,0V14.448H21.2a1.429,1.429,0,0,0,1.43-1.43" transform="translate(-4.962 -4.962)" fill="#fff"/>
    <path id="Path_84" data-name="Path 84" d="M40.94,14.448h6.575a1.43,1.43,0,0,0,0-2.859H40.94a1.43,1.43,0,1,0,0,2.859" transform="translate(-16.917 -4.962)" fill="#fff"/>
    <path id="Path_85" data-name="Path 85" d="M75.075,95.714a1.429,1.429,0,0,0-1.43,1.43v6.748H66.9a1.43,1.43,0,1,0,0,2.859h8.178a1.429,1.429,0,0,0,1.43-1.43V97.144a1.429,1.429,0,0,0-1.43-1.43" transform="translate(-28.031 -40.982)" fill="#fff"/>
    <path id="Path_86" data-name="Path 86" d="M48.354,110.015H41.78a1.43,1.43,0,1,0,0,2.859h6.575a1.43,1.43,0,1,0,0-2.859" transform="translate(-17.277 -47.105)" fill="#fff"/>
    <path id="Path_87" data-name="Path 87" d="M41.414,58.162,52,58.931l-5.96-8.784L52,41.361l-10.587.769-4.628-9.554L32.157,42.13,21.57,41.361l5.96,8.785-5.96,8.784,10.587-.769,4.628,9.554Zm-14.165-2.51,3.735-5.506L27.249,44.64l6.636.481,2.9-5.988,2.9,5.988,6.636-.481-3.735,5.506,3.735,5.506-6.636-.481-2.9,5.988-2.9-5.988Z" transform="translate(-9.236 -13.948)" fill="#fff"/>
  </g>
</svg>
