<svg xmlns="http://www.w3.org/2000/svg" xmlns:xlink="http://www.w3.org/1999/xlink" width="21.607" height="29.139" viewBox="0 0 21.607 29.139">
  <defs>
    <clipPath id="clip-path">
      <rect id="Rectangle_235" data-name="Rectangle 235" width="21.607" height="29.139" fill="#fff"/>
    </clipPath>
  </defs>
  <g id="Group_196" data-name="Group 196" transform="translate(0 0)">
    <g id="Group_195" data-name="Group 195" transform="translate(0 0.001)" clip-path="url(#clip-path)">
      <path id="Path_111" data-name="Path 111" d="M21.607,58.511H0V52.767a7.784,7.784,0,0,1,.549-1.612,8.98,8.98,0,0,1,4.4-4c1.23,2.335,3.631,3.1,5.815,4.281,2.2-1.123,4.681-1.953,5.892-4.281a8.98,8.98,0,0,1,4.4,4,7.806,7.806,0,0,1,.549,1.612Z" transform="translate(0 -29.371)" fill="#fff"/>
      <path id="Path_112" data-name="Path 112" d="M13.879.058c7.278-.884,10.072,8.5,8.409,14.209-.891,3.062-2.795,2.721-5.489,2.709-.92,0-2.172-.159-3.066-.128-2.479.086-5.165,1.165-6.366-1.812C5.309,9.936,7.515.831,13.879.058m5.271,8.028c-.094-.059-.689-1.717-.865-2.035a5.069,5.069,0,0,0-2.831-2.394c-.493.5.392.77.713,1.1A4.2,4.2,0,0,1,17.428,7.3l-.57-.85a4.18,4.18,0,0,0-2.107-1.3c-.238.013-1.067.987-1.379,1.226-1.169.9-2.942,1.692-4.365.992-.406-.2-.618-.751-.912-.014a2.13,2.13,0,0,0,.65,2.322c.209.126.623.161.732.321.191.282.421,1.3.621,1.739,2.494,5.508,6.766,5.658,9.248.044.153-.347.549-1.76.606-1.838.1-.137.849-.08,1.234-.758a2.052,2.052,0,0,0,.15-1.87c-.508-1.152-1.014.345-1.59.657-.15.081-.454.205-.6.114" transform="translate(-4.124 0)" fill="#fff"/>
    </g>
  </g>
</svg>
