<svg xmlns="http://www.w3.org/2000/svg" xmlns:xlink="http://www.w3.org/1999/xlink" width="26.918" height="28.13" viewBox="0 0 26.918 28.13">
  <defs>
    <clipPath id="clip-path">
      <rect id="Rectangle_234" data-name="Rectangle 234" width="26.918" height="28.13" fill="#fff"/>
    </clipPath>
  </defs>
  <g id="Group_194" data-name="Group 194" transform="translate(0 0)">
    <g id="Group_193" data-name="Group 193" transform="translate(0 0)" clip-path="url(#clip-path)">
      <path id="Path_107" data-name="Path 107" d="M26.918,28.13H0V13.955a18.748,18.748,0,0,1,.471-2.507c.1-.359.74-1.911.737-2.019,0-.125-.5-.9-.6-1.159C-.428,5.677.218,2.454,1.379,0a12.426,12.426,0,0,0,2.6,3.574A6.758,6.758,0,0,0,5.37,4.39c.166.01.831-.533,1.065-.661a14.558,14.558,0,0,1,15.113.661,6.924,6.924,0,0,0,3.142-2.924c.233-.366.5-1.065.74-1.357.1-.119.124-.149.221,0a13.6,13.6,0,0,1,.684,1.964,9.863,9.863,0,0,1-.026,6.2c-.1.258-.6,1.034-.6,1.159,0,.107.639,1.659.737,2.019a18.681,18.681,0,0,1,.472,2.507Zm-1.655-1.655V14.065C23.83.134,3.088.135,1.656,14.065l0,12.409ZM2.1,7.61c.21.051.212-.077.311-.185A17.712,17.712,0,0,1,3.97,5.569,12.97,12.97,0,0,1,1.876,3.859,8.016,8.016,0,0,0,2.1,7.61m22.725,0a8.01,8.01,0,0,0,.22-3.75,12.948,12.948,0,0,1-2.093,1.709,17.817,17.817,0,0,1,1.562,1.856c.1.108.1.236.31.185" transform="translate(0 0)" fill="#fff"/>
      <path id="Path_108" data-name="Path 108" d="M28.229,42.574H9.254V36.562c0-2.361,2.724-4.809,4.937-5.212a42.275,42.275,0,0,1,9.1,0c2.222.4,4.938,2.845,4.938,5.212Zm-13.349-9.6c-.154-.136-1.293.285-1.515.415-.068.04-.215.006-.139.189.047.114.991,1.039,1.1.94Zm11.694,7.942V36.672c0-.279-.714-2.11-1.04-2.037-.281.063-2.3,2.443-2.766,2.752l-2.039-4.358a31.517,31.517,0,0,0-3.7-.059c-.158.018-.291.011-.371.181l-1.94,4.236c-.466-.309-2.485-2.689-2.766-2.752-.326-.073-1.04,1.758-1.04,2.037v4.247h3.641a4.308,4.308,0,0,1,8.384,0Zm-2.317-7.5a4.694,4.694,0,0,0-1.654-.442l.552,1.544c.129.115,1.209-.952,1.1-1.1m-3.089,7.5a2.6,2.6,0,0,0-4.854,0Z" transform="translate(-5.282 -17.754)" fill="#fff"/>
      <path id="Path_109" data-name="Path 109" d="M35.793,14.36a2.816,2.816,0,0,1,2.922,1.666,2.883,2.883,0,0,1-4.658,3.224c-.442-.43-1.1-1.943-.777-2.434a29.971,29.971,0,0,1,2.513-2.456m.638,1.658A11.565,11.565,0,0,0,34.961,17.5c-.031.158.155.364.257.484.976,1.152,2.492-.123,1.985-1.325a2.2,2.2,0,0,0-.771-.637" transform="translate(-18.947 -8.161)" fill="#fff"/>
      <path id="Path_110" data-name="Path 110" d="M18.435,14.392a1.45,1.45,0,0,1,.973.078c.3.481,2.379,2.167,2.458,2.51A6.8,6.8,0,0,1,21.7,18.1a2.88,2.88,0,1,1-3.264-3.7m-.374,2a1.251,1.251,0,0,0,1.207,2.035c.331-.076.988-.673.75-1.028-.078-.116-1.246-1.288-1.331-1.327-.107-.048-.541.23-.626.319" transform="translate(-9.197 -8.189)" fill="#fff"/>
    </g>
  </g>
</svg>
