<svg xmlns="http://www.w3.org/2000/svg" xmlns:xlink="http://www.w3.org/1999/xlink" width="30.599" height="29.258" viewBox="0 0 30.599 29.258">
  <defs>
    <clipPath id="clip-path">
      <rect id="Rectangle_201" data-name="Rectangle 201" width="30.599" height="29.258" fill="#fff"/>
    </clipPath>
  </defs>
  <g id="Group_189" data-name="Group 189" clip-path="url(#clip-path)">
    <path id="Path_88" data-name="Path 88" d="M186.478,104.082l-7.5-.11c.1-.169.2-.323.29-.479a7.859,7.859,0,0,0,.52-1.046.141.141,0,0,1,.159-.1c.5.008,1,0,1.492.023.011-.046-.026-.051-.045-.065q-2.238-1.678-4.477-3.353a.115.115,0,0,1-.047-.157c.171-.487.336-.976.5-1.464.008-.022.018-.043.031-.072l9.079,6.8-.006.024" transform="translate(-155.885 -85.721)" fill="#fff"/>
    <path id="Path_89" data-name="Path 89" d="M11.383,119.114,0,118.945l.823-.582,5.227-3.678c.031-.022.063-.069.1-.053s.02.071.021.108a8.693,8.693,0,0,0,.226,1.567.157.157,0,0,1-.071.2c-.384.264-.763.535-1.143.8-.021.015-.051.023-.061.067h.129L7.1,117.4l3.313.049a2.7,2.7,0,0,0,.322.011c.125-.013.16.048.19.151.139.468.286.933.429,1.4.009.03.015.06.025.1" transform="translate(0 -101.036)" fill="#fff"/>
    <path id="Path_90" data-name="Path 90" d="M142.179,2.329l-2.43,7.117a.923.923,0,0,1-.171-.187,8.555,8.555,0,0,0-1.026-1.035.149.149,0,0,1-.055-.2c.161-.448.31-.9.463-1.352.007-.022.011-.044.021-.083l-1.067.75q-1.8,1.266-3.594,2.534a.1.1,0,0,1-.142-.005c-.406-.308-.814-.615-1.226-.915-.087-.063-.066-.085.007-.135q2.649-1.862,5.3-3.728l3.86-2.716.065-.045" transform="translate(-117.136 -2.053)" fill="#fff"/>
    <path id="Path_91" data-name="Path 91" d="M51.627,0l6.009,4.5a.314.314,0,0,1-.146.076,8.679,8.679,0,0,0-1.4.7.138.138,0,0,1-.185-.009c-.4-.3-.8-.6-1.225-.921.089.29.169.555.25.819q.712,2.3,1.427,4.608a.135.135,0,0,1-.062.183q-.62.427-1.232.866c-.081.058-.093.037-.118-.045q-.75-2.442-1.506-4.882L52.12,1.614l-.465-1.5C51.646.083,51.64.053,51.627,0" transform="translate(-45.505)" fill="#fff"/>
    <path id="Path_92" data-name="Path 92" d="M111.423,161.1l.515-1.512q.659-1.933,1.319-3.867c.021-.063.041-.105.128-.1q.753.019,1.508.02c.111,0,.121.028.087.129q-1.709,5-3.413,10c-.072.21-.142.42-.222.656-.061-.191-.116-.36-.168-.529q-1-3.249-2-6.5c-.014-.046-.064-.105-.024-.142s.1.007.146.02a9.539,9.539,0,0,0,1.551.257.116.116,0,0,1,.12.1c.137.456.28.911.421,1.365.008.026.018.052.037.105" transform="translate(-96.192 -137.16)" fill="#fff"/>
    <path id="Path_93" data-name="Path 93" d="M156.625,124.042l1.059.792c.1.072.19.145.288.214a.1.1,0,0,1,.045.139,8.975,8.975,0,0,1-5.767,5.81l-.107.033c.1-.305.2-.6.3-.887.121-.353.245-.705.362-1.06a.267.267,0,0,1,.137-.165,7.259,7.259,0,0,0,2.727-2.552,7.154,7.154,0,0,0,.925-2.224c.007-.031.017-.06.029-.1" transform="translate(-134.1 -109.333)" fill="#fff"/>
    <path id="Path_94" data-name="Path 94" d="M160.773,50.33c.476-.335.936-.656,1.393-.982.053-.038.081-.019.122.01A9.028,9.028,0,0,1,164.3,51.34a8.87,8.87,0,0,1,1.526,3.337,8.628,8.628,0,0,1,.211,1.966.1.1,0,0,1-.024.088l-.522-.388c-.373-.28-.744-.561-1.119-.838a.216.216,0,0,1-.091-.145,7.232,7.232,0,0,0-1.948-3.808,6.954,6.954,0,0,0-1.424-1.139l-.132-.081" transform="translate(-141.708 -43.477)" fill="#fff"/>
    <path id="Path_95" data-name="Path 95" d="M68.364,154.541c.491-.013.973.012,1.455.018.2,0,.391.005.586,0a.242.242,0,0,1,.189.075,7.161,7.161,0,0,0,1.819,1.28,7.272,7.272,0,0,0,2.233.685,8.251,8.251,0,0,0,1.347.064c.1,0,.2-.013.3-.023.056-.005.083,0,.06.069q-.266.771-.526,1.544c-.024.071-.076.061-.124.06-.323,0-.646-.014-.967-.048a8.773,8.773,0,0,1-2.543-.647,8.993,8.993,0,0,1-3.817-3.046.134.134,0,0,1-.009-.034" transform="translate(-60.257 -136.212)" fill="#fff"/>
    <path id="Path_96" data-name="Path 96" d="M84.975,39.075q-.108-.351-.216-.7c-.092-.3-.183-.591-.277-.886a.11.11,0,0,1,.045-.147,8.936,8.936,0,0,1,3.674-1.6,9.146,9.146,0,0,1,2.462-.114,8.551,8.551,0,0,1,1.979.41c.018.006.035.016.064.029l-.914.645c-.257.181-.515.361-.77.545a.231.231,0,0,1-.176.045,7.789,7.789,0,0,0-1.442-.054,7.283,7.283,0,0,0-2.368.546A7.175,7.175,0,0,0,85.084,39c-.024.021-.049.041-.074.06a.157.157,0,0,1-.035.012" transform="translate(-74.454 -31.375)" fill="#fff"/>
    <path id="Path_97" data-name="Path 97" d="M56.644,74.176c-.571,0-1.133,0-1.695,0-.057,0-.071-.028-.087-.075A9.131,9.131,0,0,1,54.5,72.61a9,9,0,0,1-.1-1.655,8.871,8.871,0,0,1,1.707-4.965c.016-.022.034-.042.059-.074.172.557.326,1.107.516,1.644a.968.968,0,0,1-.044.809,6.334,6.334,0,0,0-.555,2.025,7.246,7.246,0,0,0,.519,3.692c.014.032.025.066.034.09" transform="translate(-47.951 -58.099)" fill="#fff"/>
    <path id="Path_98" data-name="Path 98" d="M105.075,53.285a8.471,8.471,0,0,1,1.575-.517.779.779,0,0,1,.721.176c1.586,1.2,3.183,2.394,4.778,3.585a.152.152,0,0,1,.062.207c-.165.468-.325.938-.482,1.408-.028.084-.052.094-.125.04q-3.23-2.424-6.463-4.845c-.019-.014-.037-.03-.067-.054" transform="translate(-92.615 -46.488)" fill="#fff"/>
    <path id="Path_99" data-name="Path 99" d="M77.52,70.152l-6.763,4.763c-.013-.12-.027-.224-.034-.329a7.44,7.44,0,0,1,.072-1.62.229.229,0,0,1,.1-.164q2.581-1.814,5.159-3.631c.041-.029.072-.064.133-.018.437.333.878.661,1.33,1" transform="translate(-62.322 -60.932)" fill="#fff"/>
    <path id="Path_100" data-name="Path 100" d="M153.438,71.034a8.655,8.655,0,0,1,.929,1.251.871.871,0,0,1,.083.848c-.66,1.876-1.292,3.762-1.931,5.645a.122.122,0,0,1-.144.1q-.754-.017-1.507-.022c-.1,0-.106-.029-.076-.116q1.3-3.8,2.6-7.607c.011-.032.011-.073.051-.1" transform="translate(-132.895 -62.61)" fill="#fff"/>
    <path id="Path_101" data-name="Path 101" d="M119.913,138.917a5.305,5.305,0,0,1-.4.632,6.983,6.983,0,0,1-.79.928.2.2,0,0,1-.157.064l-4.043-.06c-.75-.011-1.5-.026-2.249-.034-.089,0-.132-.021-.159-.111q-.215-.725-.445-1.445c-.026-.083-.01-.1.073-.1q1.926.031,3.852.058l2.38.039c.626.009,1.252.016,1.878.025.015,0,.029,0,.057,0" transform="translate(-98.42 -122.333)" fill="#fff"/>
    <path id="Path_102" data-name="Path 102" d="M87.281,102.24l2.441,7.9a6.64,6.64,0,0,1-1.363-.419c-.168-.072-.33-.157-.5-.232a.177.177,0,0,1-.1-.123q-.93-3.014-1.864-6.027a.128.128,0,0,1,.06-.172c.439-.3.873-.612,1.322-.929" transform="translate(-75.702 -90.116)" fill="#fff"/>
  </g>
</svg>
