<svg xmlns="http://www.w3.org/2000/svg" xmlns:xlink="http://www.w3.org/1999/xlink" width="30.053" height="30.054" viewBox="0 0 30.053 30.054">
  <defs>
    <clipPath id="clip-path">
      <rect id="Rectangle_233" data-name="Rectangle 233" width="30.053" height="30.054" fill="none"/>
    </clipPath>
  </defs>
  <g id="Group_192" data-name="Group 192" transform="translate(0 0)">
    <g id="Group_191" data-name="Group 191" transform="translate(0 0)" clip-path="url(#clip-path)">
      <path id="Path_103" data-name="Path 103" d="M15.027,30.054A15.027,15.027,0,1,1,30.053,15.027,15.044,15.044,0,0,1,15.027,30.054M15.027,2A13.027,13.027,0,1,0,28.054,15.027,13.042,13.042,0,0,0,15.027,2" transform="translate(0 0)" fill="#fff"/>
      <path id="Path_104" data-name="Path 104" d="M30.938,20.094a4.423,4.423,0,1,1,4.423-4.423,4.428,4.428,0,0,1-4.423,4.423m0-6.847a2.424,2.424,0,1,0,2.424,2.424,2.427,2.427,0,0,0-2.424-2.424" transform="translate(-15.912 -6.75)" fill="#fff"/>
      <path id="Path_105" data-name="Path 105" d="M16.792,43.183a4.423,4.423,0,1,1,4.423-4.423,4.428,4.428,0,0,1-4.423,4.423m0-6.846a2.423,2.423,0,1,0,2.423,2.423,2.426,2.426,0,0,0-2.423-2.423" transform="translate(-7.423 -20.606)" fill="#fff"/>
      <path id="Path_106" data-name="Path 106" d="M45.086,43.183a4.423,4.423,0,1,1,4.423-4.423,4.428,4.428,0,0,1-4.423,4.423m0-6.846A2.423,2.423,0,1,0,47.51,38.76a2.426,2.426,0,0,0-2.423-2.423" transform="translate(-24.402 -20.606)" fill="#fff"/>
    </g>
  </g>
</svg>
