<svg xmlns="http://www.w3.org/2000/svg" xmlns:xlink="http://www.w3.org/1999/xlink" width="28.225" height="29.599" viewBox="0 0 28.225 29.599">
  <defs>
    <clipPath id="clip-path">
      <rect id="Rectangle_236" data-name="Rectangle 236" width="28.225" height="29.599" fill="#fff"/>
    </clipPath>
  </defs>
  <g id="Group_198" data-name="Group 198" transform="translate(0 0)">
    <g id="Group_197" data-name="Group 197" transform="translate(0 0)" clip-path="url(#clip-path)">
      <path id="Path_113" data-name="Path 113" d="M28.213,17.815c-.274-.757-1.314.025-1.784.238-.711.28-3.057,2.206-3.528,1.214.19-.838,1.209-1.487,1.7-2.2a7,7,0,0,0,1.786-4.127A3.4,3.4,0,0,0,25.3,10.447a.346.346,0,0,0-.269,0c-.463.227-.72.808-1.069,1.193-1.092,1.478-5.736,3.608-5.365.1a13.934,13.934,0,0,0-1.828-8.506C15.946,1.844,14.5.147,12.784,0c-.607.094-.34.783-.195,1.232a3.675,3.675,0,0,1,.251,1.979c-.253,1.549-2.149,2.68-3.5,3.861A9.875,9.875,0,0,0,6.869,10.2,6.938,6.938,0,0,0,6.2,13.39c.025.776-.176,1.368-.8.638a6.035,6.035,0,0,1-1.044-5c0-.276.086-.714-.23-.713C.849,10.442.291,15.334,1.988,18.723c.1.523,2.48,3.174.721,2.436C1.905,20.83.74,19.794.3,19.794a.247.247,0,0,0-.26.157c-.292,1.419.984,3.393,1.931,4.557,3.69,4.791,9.064,5.583,14.468,4.855C21.508,28.5,27.4,23.235,28.225,17.878ZM18.8,26.694c-.839,3.489-9.344,2.768-10.642.409a4.259,4.259,0,0,1,.388-4.5c.5-.391,1.208-.216,1.749-.538a.644.644,0,0,0,.293-.389c.2-.678-.227-2.477.167-3.707.257-.894,1.269-2.135,2.236-1.436.945.781,1.027,2.379,1.834,3.294.623.825,1.724.949,2.517,1.41,1.371.856,1.626,3.788,1.475,5.371Z" transform="translate(0 0)" fill="#fff"/>
    </g>
  </g>
</svg>
