<svg xmlns="http://www.w3.org/2000/svg" xmlns:xlink="http://www.w3.org/1999/xlink" width="19.728" height="32.53" viewBox="0 0 19.728 32.53">
  <defs>
    <clipPath id="clip-path">
      <rect id="Rectangle_161" data-name="Rectangle 161" width="19.728" height="32.53" fill="#bc20b2"/>
    </clipPath>
  </defs>
  <g id="Group_184" data-name="Group 184" transform="translate(-0.001)">
    <g id="Group_183" data-name="Group 183" transform="translate(0.001)" clip-path="url(#clip-path)">
      <path id="Path_80" data-name="Path 80" d="M16.511.03a9.031,9.031,0,0,1,9.695,7.9c.444,4.026-2.015,8.472-3.915,11.9-1.588,2.863-3.346,5.638-5.016,8.453-1.67-2.815-3.428-5.59-5.016-8.453-1.9-3.426-4.359-7.871-3.915-11.9A9.049,9.049,0,0,1,16.511.03m.312,5.59a3.176,3.176,0,1,0,1,6.273c3.871-.456,3.263-6.856-1-6.273" transform="translate(-7.419 0)" fill="#bc20b2"/>
      <path id="Path_81" data-name="Path 81" d="M5.72,228.451a9.677,9.677,0,0,0-1.84.563c-1.923.842-1.639,1.769.132,2.524a17.829,17.829,0,0,0,11.74-.025c3.265-1.427.01-2.733-1.761-3.062a13.04,13.04,0,0,1,1.146-2.044c.064-.082.1-.149.217-.146a8.635,8.635,0,0,1,1,.341c2.593,1.049,4.848,3.582,2.165,6.022-3.451,3.139-14.48,3.248-17.644-.312-2.5-2.817.893-5.531,3.584-6.032Z" transform="translate(0 -202.451)" fill="#bc20b2"/>
    </g>
  </g>
</svg>
