<svg xmlns="http://www.w3.org/2000/svg" xmlns:xlink="http://www.w3.org/1999/xlink" width="31.151" height="24.601" viewBox="0 0 31.151 24.601">
  <defs>
    <clipPath id="clip-path">
      <rect id="Rectangle_159" data-name="Rectangle 159" width="31.151" height="24.601" fill="#bc20b2"/>
    </clipPath>
  </defs>
  <g id="Group_180" data-name="Group 180" transform="translate(0)">
    <g id="Group_179" data-name="Group 179" transform="translate(0)" clip-path="url(#clip-path)">
      <path id="Path_72" data-name="Path 72" d="M0,7.139C.3,4.3,1.628,1.958,4.468,1.17,8.67,0,13.266-.048,17.618.019c3.376.052,9.61.158,11.949,2.955a8.651,8.651,0,0,1,1.583,4.591H24.521c.01-.436-.013-.874,0-1.31.016-.669.247-.652-.443-1.072C21.8,3.8,14.168,3.973,11.411,4.219c-1.158.1-3.785.417-4.623,1.217-.049.047-.127.092-.144.164-.035.152.107.844.115,1.08.006.164.054.825-.1.876L0,7.565c.01-.14-.014-.287,0-.426" transform="translate(0 0)" fill="#bc20b2"/>
      <path id="Path_73" data-name="Path 73" d="M.057,98.325H6.81v1.308a.781.781,0,0,1-.758.7c-1.7.159-3.636-.126-5.358,0-.335-.046-.447-.326-.636-.55Z" transform="translate(-0.052 -90.334)" fill="#bc20b2"/>
      <path id="Path_74" data-name="Path 74" d="M40.057,64.64l.122,1.643h6.935V64.64h2.859v1.795c1.983,2.7,4.214,5.231,6.168,7.945a3.322,3.322,0,0,1,.83,1.847c.162,2.075-.127,4.355,0,6.453a1.289,1.289,0,0,1-1.308,1.308H31.994c-1.042-.027-1.25-.783-1.308-1.673a51.077,51.077,0,0,1,0-5.3,4.263,4.263,0,0,1,.865-2.6c1.825-2.738,4.056-5.339,5.95-8.041V64.64Zm2.725,3.668c-1.671.11-6.554,1.226-5.221,3.786,1.036,1.99,5.31,2.342,7.27,2.218,1.672-.105,6.238-1.295,5.052-3.773-.923-1.928-5.245-2.353-7.1-2.231" transform="translate(-28.129 -59.387)" fill="#bc20b2"/>
      <path id="Path_75" data-name="Path 75" d="M308.348,98.325v1.49c0,.112-.341.539-.521.514-1.741-.115-3.7.164-5.414.006a.548.548,0,0,1-.362-.125,1.462,1.462,0,0,1-.335-.456v-1.43Z" transform="translate(-277.197 -90.334)" fill="#bc20b2"/>
    </g>
  </g>
</svg>
