<svg xmlns="http://www.w3.org/2000/svg" xmlns:xlink="http://www.w3.org/1999/xlink" width="26.075" height="19.55" viewBox="0 0 26.075 19.55">
  <defs>
    <clipPath id="clip-path">
      <rect id="Rectangle_160" data-name="Rectangle 160" width="26.075" height="19.55" fill="#bc20b2"/>
    </clipPath>
  </defs>
  <g id="Group_182" data-name="Group 182" transform="translate(0.001)">
    <g id="Group_181" data-name="Group 181" transform="translate(-0.001)" clip-path="url(#clip-path)">
      <path id="Path_76" data-name="Path 76" d="M0,59.569V46.74c.245-.35.53-.478.913-.226l7.865,6.746c.31.551-.326.892-.688,1.187-1.2.979-2.517,1.927-3.767,2.851C3.281,58.067,1.984,59.149.9,59.785c-.394.232-.635.137-.9-.216" transform="translate(0 -43.228)" fill="#bc20b2"/>
      <path id="Path_77" data-name="Path 77" d="M6.621.014,29.058,0c.58.038,1.859.781,1.424,1.474a2.727,2.727,0,0,1-.328.334c-1.8,1.723-4.037,3.4-5.958,5.038Q22.411,8.37,20.633,9.9c-.627.538-1.27,1.206-1.91,1.7-.683.533-1.075.454-1.728-.051-.624-.483-1.249-1.131-1.859-1.654-3.263-2.8-6.552-5.561-9.8-8.373C4.809.819,6.026.109,6.621.014" transform="translate(-4.852 -0.001)" fill="#bc20b2"/>
      <path id="Path_78" data-name="Path 78" d="M15.7,164.717a.657.657,0,0,1,.466.173c1.142.819,1.868,2.209,3.6,1.4.546-.253,1.691-1.567,2.082-1.585a.789.789,0,0,1,.311.089c2.971,2.344,6.024,4.581,9.1,6.781.656.718-.737,1.445-1.322,1.478H7.69c-.608-.052-1.994-.758-1.291-1.5,3.04-2.191,6.084-4.379,9.009-6.722a.882.882,0,0,1,.29-.121" transform="translate(-5.782 -153.508)" fill="#bc20b2"/>
      <path id="Path_79" data-name="Path 79" d="M261.161,46.4a.588.588,0,0,1,.636.308c.064,4.291.064,8.615,0,12.9-.444.594-.808.2-1.25-.1-1.9-1.292-3.859-2.788-5.68-4.2A18.019,18.019,0,0,1,253.179,54a.583.583,0,0,1-.121-.736l7.836-6.724a.838.838,0,0,1,.267-.142" transform="translate(-235.771 -43.23)" fill="#bc20b2"/>
    </g>
  </g>
</svg>
